<svg xmlns="http://www.w3.org/2000/svg" viewBox="0 0 981.08203 673.55961"><defs><style>.cls-1{fill:#222323;}.cls-2{fill:#af775c;}.cls-3{fill:#704133;}.cls-4{fill:#d8967e;}.cls-16,.cls-5{fill:#1d1d1b;}.cls-5{stroke:#1d1d1b;stroke-miterlimit:10;}.cls-6{fill:#edad9c;}.cls-7{fill:#ad705f;}.cls-8{fill:#bbbaba;}.cls-9{fill:#8c5344;opacity:0.66;}.cls-10{fill:#995f58;}.cls-11{fill:#582216;}.cls-12{fill:#eaaa9b;}.cls-13{fill:#623822;opacity:0.56;}.cls-14{fill:#1d1e1b;}.cls-15{fill:#fff;}.cls-17{fill:#bf896b;}</style></defs><title>Asset 5</title><g id="Layer_2" data-name="Layer 2"><g id="Layer_2-2" data-name="Layer 2"><path class="cls-1" d="M601.60986,673.55961H312.28979l-17.46-112.96-5.38989-34.87s66.22,14.55,93.03,24.50994c19.32718.39948,48.76892,3.71924,72.35262,6.779a108.78139,108.78139,0,0,1,63.70368,31.74989Z"/><path class="cls-1" d="M151.03,673.55961H0V634.55647a31.8692,31.8692,0,0,1,13.70146-26.08673c33.21336-23.24038,67.33833-91.93009,67.33833-91.93009l2.77,6.22Z"/><path class="cls-2" d="M312.82007,673.55961H149.77c-4.91016-8.53-12.08008-20.25-22.52-36-53.02-73.53-44.15015-114.93-44.15015-114.93l.71.13,211.02,37.84,5.21.93Z"/><path class="cls-3" d="M81.36209,488.962s-2.97471,32.17021,9.28061,58.97872,24.37352,69.70213,65.03782,84.25532,53.68558,22.97873,77.43026,16.85107,41.3617-11.73576,48.25532-33.82533,8.071-38.57443,8.071-38.57443Z"/><path class="cls-4" d="M188.37266,177.54329a51.87952,51.87952,0,0,0-11.519-.34587c-22.87087,1.86069-102.79559,12.45568-117.20372,70.08821-16.85107,67.40425,0,110.01074,0,110.01074L86.45843,491.62605,93.352,512.3069s37.53192,53.62781,52.08511,60.133c19.91489,11.867,62.04255,31.78185,86.55319,29.484s49.78724-10.72341,57.44681-25.2766,19.14894-44.42553,23.74468-52.85106S326.96907,492.392,328.501,490.09414s5.3617-23.74468,6.12766-41.3617,3.06383-40.86717,3.06383-43.79529-1.53192-45.08188,0-46.21776,1.53191-42.27837,0-46.21777S317.01162,241.158,317.01162,241.158s-17.617-34.46809-53.617-46.72341C234.966,184.75675,201.28329,179.37779,188.37266,177.54329Z"/><path class="cls-5" d="M346.53573,360.94736l-1.56786-6.22764s-25.78223,3.62767-42.63209,6.68767c-16.6001,1.01995-66.13013,11.75-66.13013,11.75s-17.35986.25-26.03979,1.53c-4.3501-1.28-29.62012-3.83-57.71021-4.09-28.07983-.25-48.75976,7.41-48.75976,7.41s-43.92017-21.96-44.68018-21.96l-2.2998,3.06,42.71973,23.28s.43017,3.09,1.26025,7.36c1.38989,7.16,6.04661,21.32227,11.77659,39.34229,3.03,9.54,17.56712,13.002,23.177,12.742,5.62012-.25,40.29643-3.57431,52.29643-6.1243s15.18994-11.49,15.18994-11.49,8.56006-24,9.87988-42.66a67.66169,67.66169,0,0,1,24.21-2.53s3.06006,32.68,10.72022,42.38c7.65991,9.7,22.22,10.47,22.22,10.47l36.25-4.34s18.88989-3.06,27.31982-12.26c8.43018-9.19,6.86446-51.16646,6.86446-51.16646Zm-140.19995,32.55c-.52,3.06-3.58008,18.55-6.18994,24.68-2.61011,6.13-7.77,11.23005-12.2,12.59-4.42017,1.37-24.34009,3.58-30.64014,4.6-6.29,1.02-26.88989,1.53-31.65991,0-4.76-1.53-8.17017-7.32-10.2102-10.38-2.0398-3.07-10.54981-35.75-11.23-38.13-.67993-2.38,1.7002-4.26,5.1001-5.79,3.41016-1.53,22.81006-5.79,22.81006-5.79,19.06983-2.04,43.06983,0,43.06983,0s25.19018.69,29.44018,3.24C208.88583,381.06736,206.84579,390.42734,206.33578,393.49735Zm126.80005,11.57c-1.70019,4.77-6.15865,10.18655-10.91866,13.42654-4.77,3.23-29.93144,6.66349-38.27128,7.85349-8.34009,1.18994-19.13013,1.53-26.19019-2.73-3.32983-2-7.84985-7.65-9.03979-9.87-1.19019-2.21-5.62012-26.72-6.64014-32.85s5.79-6.47,5.79-6.47,52.92993-10.89,79.81006-12.63c.99-.07,4.95,1.04,6.49,2.91,1.53,1.87,1.7,7.85,1.86987,10.59S334.84579,400.30735,333.13583,405.06736Z"/><path class="cls-6" d="M171.84141,190.76015s-35.74469,9.0854-41.87234,28.48966,0,34.7234,0,34.7234,20.42553,6.12766,30.63829,7.14894c11.234,8.17021,11.234,24.51064,11.234,24.51064a200.08273,200.08273,0,0,1-12.25532,16.34042,104.04872,104.04872,0,0,0-10.04256,13.92029s29.44681,6.50525,35.57447,10.59035a170.76136,170.76136,0,0,1,14.29787,11.282l13.2766,13.70748h17.3617l14.65958-13.70748s3.7234-8.21816,19.04255-13.32454c0-8.5478-13.2766-25.53192-13.2766-25.53192s-12.25532-21.88316-12.25532-27.79264-5.10638-5.90948-1.02127-13.05842,4.0851-21.44681,3.06383-27.57447-5.10639-21.44681-12.25532-25.53191S203.501,189.845,171.84141,190.76015Z"/><path class="cls-7" d="M214.68052,409.20925s8.17022,22.97872,6.6383,28.59574-8.68085,18.383-6.6383,21.95745,3.23277,11.234,3.23277,11.234-24.67958-7.14893-25.70085-10.21276-2.04256-6.6383,0-11.23405,6.12766-11.234,9.19149-16.34042S214.68052,409.20925,214.68052,409.20925Z"/><path class="cls-8" d="M211.16055,183.2218c1.02128.34042,43.9149,10.21276,60.59575,23.48936s31.65957,34.7234,34.04255,40.17021,5.78724,17.36171,8.51064,25.53192,5.10638,18.04255,7.14894,24.85106,4.42553,18.72341,5.44681,21.44681,12.93617,18.7234,12.93617,18.7234-3.40426-36.76595-4.766-46.63829-7.48936-35.06383-11.57447-45.617-10.89362-23.82979-16.68085-30.29788-19.74468-19.06383-27.57447-22.12766-26.51064-7.48936-30.95745-9.53191-44.12766-3.40426-44.12766-3.40426Z"/><path class="cls-8" d="M159.92257,179.85005s-42.55319,8.51064-54.46808,33.70213-9.53192,43.234-10.21277,46.6383-7.82978,21.44681-9.87234,25.19149-11.234,27.91489-11.234,27.91489S63.646,333.72239,63.646,336.78622s-8.74468,9.08511-8.74468,9.08511-10.383-56.06383-5.95745-74.44681,9.19149-32,13.95745-37.78723S76.85874,212.5309,83.32683,207.765s19.06383-13.617,27.91489-16S146.9864,179.1692,159.92257,179.85005Z"/><path class="cls-9" d="M68.7278,398.21914l26.80851,16.33s0,51.863,6.89362,75.60771,16.95682,56.56406,16.95682,56.56406L95.15334,516.19936S79.45121,487.50172,75.62142,459.3399,68.7278,398.21914,68.7278,398.21914Z"/><path class="cls-10" d="M55.40866,359.25985s-15.82979-2.80851-16.59575,6.89362,1.02128,25.78723,1.02128,25.78723l7.18118,37.78724s7.372,30.89362,8.39329,34.46808,6.89361,19.40426,19.40425,16.59575,7.14894-24.51064,7.14894-24.51064L70.21717,410.579l-5.87234-33.70212Z"/><path class="cls-11" d="M193.82013,448.35461s-8.17021,10.52246,3.57447,14.60757,19.91489,8.17021,22.97872,10.21277,7.14894,5.617,12.766,5.10638,10.7234-.51064,13.78723-4.08511a83.00486,83.00486,0,0,1,7.14894-7.14893l8.68085-3.70465s-1.53192,7.78975-6.12766,9.83231-15.77318,8.6381-17.81573,9.65937-10.7234,1.3617-14.29787-.68085-11.11572-4.766-17.24338-7.31915-11.26-5.02254-14.246-7.65957C190.30227,464.62156,183.09672,455.19385,193.82013,448.35461Z"/><path class="cls-12" d="M236.80542,448.35461s-14.5532,4.27054-10.72341,12.64993a33.9729,33.9729,0,0,0,10.72341,12.97514s8.89361-.76595,12.10638-5.3617,0-13.78723,0-13.78723Z"/><polygon class="cls-13" points="162.883 308.771 216.922 308.771 259.22 301.335 217.092 313.866 162.883 308.771"/><polygon class="cls-13" points="165.101 326.633 219.14 326.633 261.438 319.197 219.31 331.728 165.101 326.633"/><path class="cls-14" d="M273.58394,502.38976s-4.2901,13.26306-17.48409,18.75979c-1.23355.51312-2.56589,1.01642-3.98689,1.50984a1.80239,1.80239,0,0,1-.24671.079,107.75828,107.75828,0,0,1-26.181,4.93422c-10.1843.79934-18.25662.10854-24.61184-1.352a46.04391,46.04391,0,0,1-9.5921-3.25658,36.92493,36.92493,0,0,1-3.77969-2.07241c-7.1645-4.5-9.11843-17.08774-9.11843-17.08774s7.1645,3.83443,23.9211,1.58446h.01975a196.527,196.527,0,0,1,23.16121-1.61844,196.046,196.046,0,0,1,33.85869,2.01314C268.44529,507.314,273.58394,502.38976,273.58394,502.38976Z"/><path class="cls-15" d="M252.21,523.00962a109.19455,109.19455,0,0,1-26.53,5c-10.32007.81-18.5.11-24.93994-1.37a378.97249,378.97249,0,0,1,48.04-3.59C249.97,523.03965,251.10986,523.02964,252.21,523.00962Z"/><path class="cls-15" d="M376.57282,448.54989s103.25972-63.19226,109.34846-122.749c-29.20416-23.5286-111.76086-97.05547-54.67423-208.81633C481.07032,18.07218,646.70894,6.73505,687.00249,5.99978c89.64589-.01659,280.81577,22.36616,288.07912,191.56916.05435,135.5846-180.08115,178.27147-267.24035,179.33331s-154.06866-14.338-154.06866-14.338S426.62035,420.73154,376.57282,448.54989Z"/><path class="cls-16" d="M379.48827,453.794l-6.04786-10.36133c.98829-.60547,97.0918-60.04639,106.09278-115.09571-27.00489-22.229-46.22461-45.55712-58.70508-71.23388-21.96484-45.1919-20.25684-93.25293,5.07519-142.84815C447.86815,70.65039,493.335,38.563,561.02635,18.91357,617.70409,2.46094,671.6953.27832,686.89354.001l.1084-.001h.09765C725.876,0,800.374,4.27344,864.38182,32.84814c33.77148,15.07715,60.66992,35.16163,79.94824,59.69629,22.63574,28.8086,34.999,64.05713,36.7461,104.76709l.00586.25489c.02441,61.32226-36.02442,111.63183-104.24805,145.48974-57.55371,28.562-124.99512,39.31055-168.91992,39.84571-78.51758.96435-141.53907-11.52-153.46094-14.04883C538.72069,376.07617,425.51561,428.21,379.48827,453.794ZM687.05858,12c-20.5293.37939-199.54492,6.61816-250.45313,107.68359-47.46289,92.92041,2.66895,160.83155,53.08008,201.44483l2.53516,2.043-.33106,3.23974c-3.13281,30.64453-29.68261,61.54053-56.17968,85.22266,53.87207-26.27588,114.68554-54.12256,115.5664-54.52539l1.85352-.84815,1.9873.457c.66211.15185,67.26758,15.22705,152.65039,14.18554,67.79-.82617,261.251-34.42138,261.31446-173.20312-3.0918-71.02979-39.96289-122.80908-109.5918-153.894C797.51756,16.13965,724.92186,12,687.09959,12Z"/><path class="cls-16" d="M466.25809,149.59078l6.55613-.97039,2.73231,18.46012,22.94283-3.39581-2.73231-18.46011,6.47987-.95909,7.104,47.99629-6.47988.95909-3.4126-23.0563-22.94283,3.3958,3.4126,23.0563-6.55613.97039Z"/><path class="cls-16" d="M472.51952,198.72266l-7.39747-49.97461,8.53516-1.26319,2.73242,18.46,20.96387-3.103-2.73242-18.46,8.459-1.252,7.39649,49.97461-8.458,1.252-3.41309-23.05616-20.96386,3.103,3.41211,23.05615Zm-5.126-48.28907,6.81152,46.01758,4.57715-.67724-3.41211-23.05616,24.9209-3.689,3.41309,23.05615,4.501-.666-6.81054-46.01758-4.502.666,2.73242,18.46-24.92089,3.689-2.73243-18.46Z"/><path class="cls-16" d="M513.36834,159.904l6.55522-.97025,2.59291,17.51827q1.199,8.10076,8.31965,7.04589a6.30638,6.30638,0,0,0,4.68949-2.908,8.95336,8.95336,0,0,0,.96735-6.20655l-2.59291-17.51827,6.47988-.95909,2.749,18.57313a13.08318,13.08318,0,0,1-2.38267,10.16992,14.62792,14.62792,0,0,1-19.47685,2.88279,13.51307,13.51307,0,0,1-5.18552-9.28073Z"/><path class="cls-16" d="M529.05858,191.04736a13.634,13.634,0,0,1-8.38965-2.71582,14.53466,14.53466,0,0,1-5.57422-9.93408l-2.8623-19.33642,8.53418-1.26319,2.73925,18.50781c.36133,2.44043,1.14649,4.188,2.33594,5.19483a5.82525,5.82525,0,0,0,4.84766,1.0083,5.31039,5.31039,0,0,0,3.98828-2.44873,8.03813,8.03813,0,0,0,.82617-5.53027l-2.73926-18.50733,8.458-1.25244,2.89551,19.5625a14.10167,14.10167,0,0,1-2.57227,10.9165,14.40036,14.40036,0,0,1-9.81543,5.59522A18.23,18.23,0,0,1,529.05858,191.04736Zm-14.55469-30.30078,2.56934,17.35791a12.44386,12.44386,0,0,0,4.7959,8.627,13.63241,13.63241,0,0,0,18.07714-2.68262,12.01549,12.01549,0,0,0,2.19336-9.42334l-2.60254-17.584-4.501.66651,2.44629,16.52881a9.94524,9.94524,0,0,1-1.10938,6.8833,7.291,7.291,0,0,1-5.39062,3.36718,7.7887,7.7887,0,0,1-6.4336-1.46044c-1.57031-1.33057-2.58691-3.49317-3.02148-6.42823L519.081,160.06934Z"/><path class="cls-16" d="M548.84,170.39988a15.64755,15.64755,0,0,1,3.35355-12.06556,16.17053,16.17053,0,0,1,10.814-6.663,16.4449,16.4449,0,0,1,12.439,3.14427,15.59191,15.59191,0,0,1,6.697,10.655,16.14339,16.14339,0,0,1-3.20752,12.27494,15.65419,15.65419,0,0,1-10.61959,6.67271,16.75079,16.75079,0,0,1-12.69165-3.16487A15.84963,15.84963,0,0,1,548.84,170.39988Zm26.97719-3.97345a9.39513,9.39513,0,0,0-4.03352-6.44275,10.03776,10.03776,0,0,0-7.591-1.86592,10.29593,10.29593,0,0,0-6.88919,4.04765,9.598,9.598,0,0,0-2.02267,7.53163,9.28135,9.28135,0,0,0,4.12511,6.40971,10.36938,10.36938,0,0,0,7.72538,1.865,9.91629,9.91629,0,0,0,6.67389-4.0733A9.68739,9.68739,0,0,0,575.81715,166.42643Z"/><path class="cls-16" d="M565.66893,185.61719a17.84716,17.84716,0,0,1-10.62988-3.55323,16.88464,16.88464,0,0,1-7.18848-11.51757h0a16.67917,16.67917,0,0,1,3.544-12.814,17.21247,17.21247,0,0,1,11.46679-7.05029,17.47936,17.47936,0,0,1,13.16992,3.32226,16.62609,16.62609,0,0,1,7.10157,11.31983,17.18024,17.18024,0,0,1-3.38965,13.01123,16.68585,16.68585,0,0,1-11.28027,7.07226A19.08375,19.08375,0,0,1,565.66893,185.61719Zm-15.83984-15.36377a14.76258,14.76258,0,0,0,6.38086,10.189,15.85391,15.85391,0,0,0,11.96,2.98682,14.56574,14.56574,0,0,0,9.958-6.27344,15.05243,15.05243,0,0,0,3.02637-11.53857,14.51405,14.51405,0,0,0-6.293-9.99121,15.5505,15.5505,0,0,0-11.707-2.96534,15.07658,15.07658,0,0,0-10.16211,6.27588,14.56293,14.56293,0,0,0-3.16308,11.3169Zm15.66308,8.84131a11.40971,11.40971,0,0,1-6.66015-2.16895,10.27957,10.27957,0,0,1-4.54-7.08252,10.60311,10.60311,0,0,1,2.21972-8.28808,11.31243,11.31243,0,0,1,7.53418-4.42676,11.04943,11.04943,0,0,1,8.32129,2.04346,10.40323,10.40323,0,0,1,4.43946,7.10791h0a10.69163,10.69163,0,0,1-2.20215,8.21875,10.9212,10.9212,0,0,1-7.32715,4.4624A12.16372,12.16372,0,0,1,565.49217,179.09473Zm.33106-20.1001a10.149,10.149,0,0,0-1.48438.1123,9.25288,9.25288,0,0,0-6.24316,3.66895,8.56085,8.56085,0,0,0-1.8252,6.7749,8.24657,8.24657,0,0,0,3.71,5.73731,9.319,9.319,0,0,0,7.00391,1.69433,8.875,8.875,0,0,0,6.02051-3.68408,8.64891,8.64891,0,0,0,1.82324-6.72559,8.36371,8.36371,0,0,0-3.62891-5.77685A8.98335,8.98335,0,0,0,565.82323,158.99463Z"/><path class="cls-16" d="M590.86771,180.19488l-4.60031-31.0808,6.47987-.95909.70817,4.78456a19.235,19.235,0,0,1,3.75354-4.94446,8.72181,8.72181,0,0,1,4.60242-2.06717,9.03546,9.03546,0,0,1,5.78527.72217,11.75193,11.75193,0,0,1,4.14017,4.43058,20.414,20.414,0,0,1,4.0155-5.63771,9.37652,9.37652,0,0,1,5.08564-2.3312,8.69755,8.69755,0,0,1,6.80254,1.8226,9.22287,9.22287,0,0,1,3.65834,6.17683l3.34569,22.60422-6.55522.97025-3.09476-20.9089q-.76387-5.16085-5.86577-4.40617a6.10106,6.10106,0,0,0-4.54175,3.36716,10.50919,10.50919,0,0,0-1.057,6.81678L616.03374,176.47l-6.55522.97025L606.512,157.39786q-.90333-6.10313-5.91348-5.36158a6.41637,6.41637,0,0,0-4.68116,3.23381,9.375,9.375,0,0,0-1.16269,6.44743l2.59291,17.51827Z"/><path class="cls-16" d="M590.02538,181.33057l-4.89356-33.05909,8.458-1.25244.459,3.10059a16.31625,16.31625,0,0,1,2.499-2.875,9.74922,9.74922,0,0,1,5.11718-2.30615,10.039,10.039,0,0,1,6.417.83691,11.35543,11.35543,0,0,1,3.582,3.36914,19.11777,19.11777,0,0,1,3.41211-4.439,10.4071,10.4071,0,0,1,5.61523-2.583,9.70436,9.70436,0,0,1,7.55664,2.01807,10.22469,10.22469,0,0,1,4.04,6.82421l3.49219,23.59327-8.53418,1.26318-3.24121-21.898a4.442,4.442,0,0,0-1.459-3.0293,4.307,4.307,0,0,0-3.2705-.53418,5.11112,5.11112,0,0,0-3.81446,2.86377,9.58145,9.58145,0,0,0-.9414,6.18457l2.65039,17.90479-8.53418,1.26318-3.11328-21.03174a6.27782,6.27782,0,0,0-1.61231-3.79785,3.66048,3.66048,0,0,0-3.165-.72119,5.42053,5.42053,0,0,0-3.97461,2.76563,8.33691,8.33691,0,0,0-1.02636,5.77978l2.73925,18.50781ZM587.4033,149.957l4.30762,29.102,4.501-.666-2.44629-16.5293a10.393,10.393,0,0,1,1.29785-7.11426,7.40359,7.40359,0,0,1,5.38867-3.70263,5.59708,5.59708,0,0,1,4.80176,1.21826,8.14,8.14,0,0,1,2.24707,4.98632l2.82031,19.05323,4.57715-.67725L612.541,159.70117a11.53242,11.53242,0,0,1,1.17188-7.44922,7.078,7.078,0,0,1,5.26953-3.8706,6.182,6.182,0,0,1,4.76464.91406,6.32094,6.32094,0,0,1,2.23633,4.335l2.94825,19.91943,4.57714-.67724-3.19922-21.61475a8.18263,8.18263,0,0,0-3.27734-5.52929,7.671,7.671,0,0,0-6.04785-1.62745,8.43245,8.43245,0,0,0-4.55762,2.08008,19.54207,19.54207,0,0,0-3.80273,5.36133l-.82813,1.59033-.918-1.54052a10.86069,10.86069,0,0,0-3.7666-4.06836,8.12077,8.12077,0,0,0-5.15332-.60694,7.6778,7.6778,0,0,0-4.08789,1.82813,18.38481,18.38481,0,0,0-3.5459,4.68847l-1.43359,2.52295-.98633-6.666Z"/><path class="cls-16" d="M671.86253,153.61559l-26.52228,3.9256q1.57428,4.65682,4.97153,6.406a11.352,11.352,0,0,0,7.013,1.214,11.71832,11.71832,0,0,0,8.65721-6.01675l5.32032,2.90844a17.49389,17.49389,0,0,1-13.39789,9.10536,15.79387,15.79387,0,0,1-12.30609-3.02943,16.31856,16.31856,0,0,1-6.41687-11.10043,15.99358,15.99358,0,0,1,3.03549-12.13351,16.21115,16.21115,0,0,1,23.04839-3.33443Q670.778,145.76785,671.86253,153.61559Zm-26.61924-1.41141,18.98754-2.81038q-4.11246-5.93568-10.291-5.02164Q647.19532,145.37041,645.24329,152.20418Z"/><path class="cls-16" d="M655.18163,172.36426a16.54028,16.54028,0,0,1-10.18555-3.437,17.36316,17.36316,0,0,1-6.80371-11.75245,17.03151,17.03151,0,0,1,3.21484-12.86621,17.21,17.21,0,0,1,24.46484-3.543c3.875,2.95751,6.22364,7.23486,6.98047,12.71337l.13575.981-26.27149,3.88818a9.02872,9.02872,0,0,0,4.05274,4.71,10.41934,10.41934,0,0,0,6.40918,1.11377,10.67615,10.67615,0,0,0,7.94335-5.5376l.49317-.83008,7.05371,3.856-.49414.88183a18.52294,18.52294,0,0,1-14.124,9.60547A19.5709,19.5709,0,0,1,655.18163,172.36426Zm.41406-33.2124a16.36755,16.36755,0,0,0-2.40137.18164,14.6086,14.6086,0,0,0-10.168,6.148,15.8767,15.8767,0,0,0,3.17481,21.84912A14.70192,14.70192,0,0,0,657.7578,170.169a16.35,16.35,0,0,0,12.15722-7.73536l-3.58984-1.96191a12.55518,12.55518,0,0,1-8.85352,5.67871,12.38966,12.38966,0,0,1-7.61816-1.314c-2.49219-1.2837-4.33008-3.63038-5.46094-6.9751l-.38379-1.13428,26.707-3.95264a16.24669,16.24669,0,0,0-6.05664-10.41894A14.55851,14.55851,0,0,0,655.59569,139.15186Zm-11.74024,14.26855.42578-1.49121c1.41407-4.9458,4.61426-7.82129,9.51172-8.54639,4.50782-.66748,8.2959,1.16358,11.25977,5.4419l.916,1.32275Zm11.7002-8.17041a10.03618,10.03618,0,0,0-1.46973.11133,8.7932,8.7932,0,0,0-7.3584,5.6123l15.67286-2.31982A8.76588,8.76588,0,0,0,655.55565,145.25Z"/><path class="cls-16" d="M680.30507,166.95713l-4.60032-31.0808,6.40453-.94795.76393,5.1613a26.33413,26.33413,0,0,1,4.44616-5.33548,9.50457,9.50457,0,0,1,4.90891-2.209,10.32509,10.32509,0,0,1,7.62692,1.72006,8.93462,8.93462,0,0,1,3.98829,6.26251l3.32338,22.45352-6.55613.97039-3.039-20.53217a5.76549,5.76549,0,0,0-2.25753-3.93925,5.66709,5.66709,0,0,0-4.40761-1.04158,7.30049,7.30049,0,0,0-5.24215,3.60534,10.04317,10.04317,0,0,0-1.38319,7.03854l2.50368,16.91549Z"/><path class="cls-16" d="M679.4619,168.09277l-4.89258-33.05908,8.38281-1.24121.5459,3.687a22.63309,22.63309,0,0,1,3.16992-3.48388,10.52861,10.52861,0,0,1,5.41407-2.43946,11.34607,11.34607,0,0,1,8.33984,1.88526,9.93816,9.93816,0,0,1,4.41113,6.93994l3.46973,23.44287-8.53516,1.26318L696.582,143.56592a4.75692,4.75692,0,0,0-1.86817-3.28565,4.673,4.673,0,0,0-3.66113-.85254,6.29928,6.29928,0,0,0-4.543,3.14942,8.99781,8.99781,0,0,0-1.23926,6.35889l2.65039,17.90478Zm-2.6211-31.37353,4.30665,29.102,4.50195-.666L683.292,149.229a11.06189,11.06189,0,0,1,1.52539-7.71728,8.29563,8.29563,0,0,1,5.94238-4.0625,6.66689,6.66689,0,0,1,5.15527,1.23193,6.75181,6.75181,0,0,1,2.64551,4.59229l2.89258,19.54248,4.57812-.67725-3.17675-21.46435a7.90968,7.90968,0,0,0-3.56543-5.58545,9.27164,9.27164,0,0,0-6.91407-1.5542,8.55941,8.55941,0,0,0-4.40332,1.978,25.47794,25.47794,0,0,0-4.2666,5.13183l-1.4414,2.16211-.99707-6.74268Z"/><path class="cls-16" d="M711.47462,121.34221l6.55522-.97025,1.33827,9.04169,6.47988-.9591.88661,5.99012-6.47988.9591,3.71371,25.09068-6.55522.97025L713.6995,136.374l-5.16175.764-.89776-6.06546,5.16175-.764Z"/><path class="cls-16" d="M716.5703,162.60059l-3.71387-25.09082-5.16113.76416L706.50389,130.23l5.16211-.76416-1.32715-8.96631,8.53418-1.26318,1.33789,9.0415,6.47949-.959,1.17969,7.96875-6.47949.959,3.71387,25.09082ZM714.542,135.23828l3.71386,25.09082,4.57715-.67724L719.11913,134.561l6.47949-.959-.59375-4.01172-6.47949.959-1.3379-9.04151-4.57714.67725,1.32714,8.96631-5.1621.76416.60546,4.08691Z"/><path class="cls-16" d="M757.79438,123.72612l6.55613-.97038,4.60031,31.0808-6.55613.97038-.91448-6.17849q-3.74085,7.75347-10.824,8.8014a13.78372,13.78372,0,0,1-11.20609-3.26924,17.05113,17.05113,0,0,1-6.08527-11.07251,16.68182,16.68182,0,0,1,2.7024-12.04618,13.60321,13.60321,0,0,1,9.58145-6.40355,13.25988,13.25988,0,0,1,7.2275.97069,14.36685,14.36685,0,0,1,5.855,4.44626Zm3.21826,15.50076a10.011,10.011,0,0,0-4.13551-6.83723A10.39952,10.39952,0,0,0,742.305,134.527a9.67916,9.67916,0,0,0-2.04547,7.54057,10.44067,10.44067,0,0,0,4.12809,7.0503,9.96553,9.96553,0,0,0,7.77956,2.00546,10.5751,10.5751,0,0,0,8.84543-11.89646Z"/><path class="cls-16" d="M748.50389,158.59131a14.94825,14.94825,0,0,1-9.69043-3.65918,18.09594,18.09594,0,0,1-6.4375-11.69775,17.7245,17.7245,0,0,1,2.8584-12.74512,14.62,14.62,0,0,1,10.26758-6.84033,14.30926,14.30926,0,0,1,7.76367,1.03906,15.86679,15.86679,0,0,1,4.02051,2.437l-.62793-4.2417,8.53515-1.26318,4.89356,33.05908-8.53516,1.26367-.63379-4.28027a14.30854,14.30854,0,0,1-10.11523,6.75635A15.72225,15.72225,0,0,1,748.50389,158.59131Zm-.95117-33.09375a11.96418,11.96418,0,0,0-1.75781.12988,12.54011,12.54011,0,0,0-8.89453,5.96729,15.77726,15.77726,0,0,0-2.5459,11.34668,16.14537,16.14537,0,0,0,5.73242,10.44775,12.72343,12.72343,0,0,0,10.42285,3.05127c4.41406-.65332,7.708-3.35059,10.07031-8.24658l1.41309-2.93018,1.24414,8.40772,4.57812-.67774L763.5078,123.8916l-4.57813.67725,1.34863,9.10254-2.33593-3.002a13.4466,13.4466,0,0,0-5.45606-4.13964A12.59877,12.59877,0,0,0,747.55272,125.49756Zm2.97851,26.749a10.93416,10.93416,0,0,1-6.749-2.333,11.45168,11.45168,0,0,1-4.51172-7.6997,10.68589,10.68589,0,0,1,2.23926-8.293,11.39839,11.39839,0,0,1,15.96-2.33643,11.01744,11.01744,0,0,1,4.53223,7.4961h0a11.57466,11.57466,0,0,1-9.68848,13.03222A12.163,12.163,0,0,1,750.53123,152.24658Zm.23731-20.93164a10.31787,10.31787,0,0,0-1.5166.11475,9.12648,9.12648,0,0,0-6.15235,3.7041,8.64729,8.64729,0,0,0-1.85058,6.78711,9.38852,9.38852,0,0,0,3.74414,6.40039,8.92164,8.92164,0,0,0,7.02734,1.813,9.57623,9.57623,0,0,0,8.00293-10.76074h0a8.96691,8.96691,0,0,0-3.73926-6.17872A9.07138,9.07138,0,0,0,750.76854,131.31494Z"/><path class="cls-16" d="M565.051,203.72789l7.6435-.42875,1.49814,26.70833a25.92009,25.92009,0,0,1,5.61167-5.625,12.819,12.819,0,0,1,6.60586-2.02276,10.6533,10.6533,0,0,1,8.17213,3.08921,11.868,11.868,0,0,1,3.83508,8.2674l1.41682,25.25869-7.64456.4288-1.29608-23.10621a8.2674,8.2674,0,0,0-2.0429-5.39371,5.7091,5.7091,0,0,0-4.70657-1.80711,9.32578,9.32578,0,0,0-6.87473,3.51433,10.6659,10.6659,0,0,0-2.49767,7.71952l1.12113,19.98731-7.6435.42874Z"/><path class="cls-16" d="M567.30663,261.80078l-3.31055-59.01514,9.64062-.54052,1.41114,25.15185a22.95373,22.95373,0,0,1,4.19531-3.84179,13.847,13.847,0,0,1,7.11133-2.19385,11.66882,11.66882,0,0,1,8.91211,3.35888,12.88451,12.88451,0,0,1,4.14843,8.94043l1.47364,26.25684-9.64161.54053-1.35156-24.10449a7.3471,7.3471,0,0,0-1.77344-4.76465,4.6897,4.6897,0,0,0-3.92187-1.49366,8.29331,8.29331,0,0,0-6.16406,3.15723,9.621,9.621,0,0,0-2.2666,7.022l1.17773,20.98584Zm-1.20118-57.13037,3.08594,55.022,5.64649-.31689-1.06446-18.98877a11.68011,11.68011,0,0,1,2.72949-8.41748,10.32794,10.32794,0,0,1,7.58594-3.8711,6.696,6.696,0,0,1,5.49024,2.12012,9.27093,9.27093,0,0,1,2.3125,6.023l1.24023,22.1084,5.64746-.3169-1.36035-24.26025a10.80641,10.80641,0,0,0-3.52246-7.59521,9.5983,9.5983,0,0,0-7.43067-2.81885,11.89379,11.89379,0,0,0-6.0996,1.85107,25.11643,25.11643,0,0,0-5.38282,5.41016l-1.63965,2.11719-1.59179-28.3833Z"/><path class="cls-16" d="M605.972,222.27593l7.6435-.42875,1.14578,20.4266q.52983,9.44562,8.83272,8.97882a7.28553,7.28553,0,0,0,5.70022-2.85382,10.34345,10.34345,0,0,0,1.76388-7.03913l-1.14578-20.42659,7.55564-.42382,1.21477,21.65659a15.11447,15.11447,0,0,1-3.80788,11.45052,16.89911,16.89911,0,0,1-22.71033,1.27387,15.61111,15.61111,0,0,1-4.99253-11.22128Z"/><path class="cls-16" d="M622.59764,259.67871a16.009,16.009,0,0,1-11.10351-4.04639,16.64129,16.64129,0,0,1-5.32032-11.90722L604.917,221.3335l9.64062-.54053,1.20215,21.4248c.16211,2.88428.89746,5.01123,2.1875,6.32178,1.27246,1.293,3.09766,1.85693,5.59082,1.71436a6.28041,6.28041,0,0,0,4.96-2.46,9.42979,9.42979,0,0,0,1.56152-6.37793l-1.20214-21.4253,9.55273-.53564,1.27051,22.65478a16.14284,16.14284,0,0,1-4.06348,12.17627,16.48567,16.48567,0,0,1-11.77344,5.35742Q623.21239,259.67871,622.59764,259.67871Zm-15.57129-36.46045,1.14356,20.39453c.252,4.48438,1.77734,7.93018,4.66406,10.53516,2.88183,2.604,6.43652,3.749,10.89844,3.49853a14.36751,14.36751,0,0,0,10.40039-4.70019,14.03621,14.03621,0,0,0,3.55175-10.72412l-1.15917-20.65869-5.5586.312,1.08887,19.42822a11.3396,11.3396,0,0,1-1.96582,7.7002,8.2748,8.2748,0,0,1-6.44043,3.24707c-3.05274.17187-5.45215-.606-7.12891-2.3086-1.63965-1.668-2.56738-4.229-2.75683-7.61279l-1.09082-19.42822Z"/><path class="cls-16" d="M645.681,238.0717a18.07705,18.07705,0,0,1,5.12369-13.52961,18.68119,18.68119,0,0,1,13.14024-6.53153,18.99816,18.99816,0,0,1,13.98127,4.92209,18.01279,18.01279,0,0,1,6.5873,12.96084,18.64984,18.64984,0,0,1-4.97765,13.78582,18.08469,18.08469,0,0,1-12.91761,6.56311,19.35156,19.35156,0,0,1-14.26971-4.97227A18.31051,18.31051,0,0,1,645.681,238.0717Zm31.45381-1.742A10.85381,10.85381,0,0,0,673.17,228.4943a11.59624,11.59624,0,0,0-8.53769-2.94288,11.89454,11.89454,0,0,0-8.35049,3.93424,11.08825,11.08825,0,0,0-3.117,8.453,10.72244,10.72244,0,0,0,4.07365,7.807,11.97936,11.97936,0,0,0,8.69239,2.956,11.45581,11.45581,0,0,0,8.10547-3.98634A11.1914,11.1914,0,0,0,677.13481,236.32968Z"/><path class="cls-16" d="M665.40428,257.27637a20.37984,20.37984,0,0,1-13.71289-5.25244,19.35261,19.35261,0,0,1-7.00879-13.896h0a19.11544,19.11544,0,0,1,5.38184-14.25781,19.7312,19.7312,0,0,1,13.82519-6.85791,20.0572,20.0572,0,0,1,14.69239,5.166,19.05281,19.05281,0,0,1,6.92968,13.65918,19.69585,19.69585,0,0,1-5.22461,14.50244,19.12853,19.12853,0,0,1-13.61328,6.90088Q666.03514,257.27662,665.40428,257.27637ZM646.6787,238.01563a17.42306,17.42306,0,0,0,6.32617,12.5,18.46649,18.46649,0,0,0,13.55761,4.728,17.195,17.195,0,0,0,12.22266-6.2251,17.76164,17.76164,0,0,0,4.73047-13.06884,17.12715,17.12715,0,0,0-6.24609-12.2627,18.1069,18.1069,0,0,0-13.26856-4.67773,17.79851,17.79851,0,0,0-12.45605,6.20508,17.19227,17.19227,0,0,0-4.86621,12.80127Zm18.50293,11.707a12.98717,12.98717,0,0,1-8.58887-3.21387,11.725,11.725,0,0,1-4.42578-8.51416,12.095,12.095,0,0,1,3.38183-9.18848,12.917,12.917,0,0,1,9.02832-4.25342,12.63673,12.63673,0,0,1,9.24805,3.186,11.86612,11.86612,0,0,1,4.30762,8.53467h0a12.20269,12.20269,0,0,1-3.3545,9.11181,12.47552,12.47552,0,0,1-8.792,4.31495C665.71678,249.71533,665.44725,249.72266,665.18163,249.72266Zm.209-23.19287q-.34717,0-.70215.02a10.83658,10.83658,0,0,0-7.67285,3.61573,10.04319,10.04319,0,0,0-2.85254,7.71679,9.68155,9.68155,0,0,0,3.7207,7.09961,10.89668,10.89668,0,0,0,7.99121,2.7212,10.40281,10.40281,0,0,0,7.41895-3.65821,10.14383,10.14383,0,0,0,2.84277-7.65918h0a9.814,9.814,0,0,0-3.62207-7.13623A10.50054,10.50054,0,0,0,665.39061,226.52979Z"/><path class="cls-16" d="M693.00633,253.74872,690.9735,217.508l7.55564-.42382.31293,5.57888a22.22139,22.22139,0,0,1,4.837-5.29488,10.07611,10.07611,0,0,1,5.51187-1.89557,10.43838,10.43838,0,0,1,6.58017,1.43763,13.57661,13.57661,0,0,1,4.29855,5.53158,23.58353,23.58353,0,0,1,5.2111-6.065,10.83225,10.83225,0,0,1,6.09549-2.14863,10.04794,10.04794,0,0,1,7.63512,2.81034,10.65488,10.65488,0,0,1,3.56106,7.4901l1.47842,26.35689-7.6435.42875-1.36754-24.38013q-.33754-6.01764-6.2864-5.68448a7.04832,7.04832,0,0,0-5.5784,3.39755,12.14085,12.14085,0,0,0-1.931,7.7318l1.10635,19.72375-7.6435.42874L713.396,229.16171q-.39917-7.11636-6.24109-6.78868a7.41255,7.41255,0,0,0-5.7248,3.2295,10.83053,10.83053,0,0,0-2.01389,7.29578l1.14578,20.4266Z"/><path class="cls-16" d="M692.06346,254.80273l-2.14453-38.2373,9.55273-.53564.21582,3.85253a19.25934,19.25934,0,0,1,3.40137-3.32128,11.10074,11.10074,0,0,1,6.04688-2.08692,11.44863,11.44863,0,0,1,7.19824,1.60938,13.167,13.167,0,0,1,3.8418,4.40869,22.22112,22.22112,0,0,1,4.5-4.91114,11.86313,11.86313,0,0,1,6.64453-2.35156,11.07416,11.07416,0,0,1,8.36914,3.07324,11.66675,11.66675,0,0,1,3.88086,8.16993l1.53515,27.35547-9.64062.54052L734.042,226.99023c-.19629-3.47168-1.81153-4.936-5.23243-4.74218a6.05186,6.05186,0,0,0-4.80859,2.9624,11.22509,11.22509,0,0,0-1.75879,7.1123l1.16309,20.72217-9.64063.54053-1.36718-24.36768a7.39854,7.39854,0,0,0-1.49805-4.63476,4.367,4.367,0,0,0-3.68848-1.21143,6.40565,6.40565,0,0,0-4.97851,2.82715,9.78161,9.78161,0,0,0-1.81836,6.64356l1.20215,21.4248Zm-.03516-36.35253,1.91993,34.24414,5.55859-.312L698.418,232.95459a11.85149,11.85149,0,0,1,2.209-7.94775,8.40239,8.40239,0,0,1,6.47265-3.63233,6.31,6.31,0,0,1,5.27246,1.855,9.26214,9.26214,0,0,1,2.02149,5.87647l1.25586,22.37109,5.64648-.31689-1.0498-18.7251a13.16467,13.16467,0,0,1,2.10254-8.35108,8.02929,8.02929,0,0,1,6.34961-3.833c4.54394-.25635,7.08105,2.03662,7.33984,6.62695l1.31152,23.38232,5.64649-.31689L741.5742,224.585a9.60927,9.60927,0,0,0-3.24023-6.811,9.00425,9.00425,0,0,0-6.90234-2.54737,9.89725,9.89725,0,0,0-5.5459,1.94678,22.73657,22.73657,0,0,0-4.97559,5.80908l-.96875,1.50928-.77441-1.61816a12.67737,12.67737,0,0,0-3.959-5.13721,9.54949,9.54949,0,0,0-5.96094-1.26514,9.1425,9.1425,0,0,0-4.97851,1.7041,21.39578,21.39578,0,0,0-4.60547,5.0586l-1.65723,2.38281-.41894-7.47852Z"/><path class="cls-16" d="M788.978,231.66429,758.05256,233.399q1.32277,5.52276,5.04785,7.89143a13.1145,13.1145,0,0,0,7.94112,2.13218,13.53771,13.53771,0,0,0,10.5911-6.01424l5.816,3.90414a20.21006,20.21006,0,0,1-16.36917,9.07046,18.24613,18.24613,0,0,1-13.84035-4.776,18.85227,18.85227,0,0,1-6.21833-13.444,18.47679,18.47679,0,0,1,4.7649-13.64115,18.72816,18.72816,0,0,1,26.86674-1.41889Q788.55329,222.52177,788.978,231.66429Zm-30.47723-4.41569,22.1398-1.24187q-4.10883-7.26029-11.31307-6.85671Q761.46329,219.59114,758.50076,227.2486Z"/><path class="cls-16" d="M769.81541,251.41846a19.11311,19.11311,0,0,1-13.249-5.07129,19.90528,19.90528,0,0,1-6.54394-14.12793,19.51872,19.51872,0,0,1,5.01074-14.355,19.7269,19.7269,0,0,1,28.2959-1.49756c4.11621,3.78027,6.35254,8.91113,6.64746,15.251l.0459.98925-30.67872,1.7212a10.67011,10.67011,0,0,0,4.29395,6.11865,12.17018,12.17018,0,0,0,7.34863,1.97705,12.47793,12.47793,0,0,0,9.83692-5.60205l.56543-.78174,7.45605,5.00537-.57226.8335a21.248,21.248,0,0,1-17.1377,9.50244Q770.46824,251.4187,769.81541,251.41846Zm.25489-38.3291c-.35742,0-.7168.01025-1.08106.03076A17.237,17.237,0,0,0,756.54,219.17969a17.58553,17.58553,0,0,0-4.52148,12.92724,17.96831,17.96831,0,0,0,5.89258,12.75977,17.35764,17.35764,0,0,0,13.1123,4.51758,19.03536,19.03536,0,0,0,15.01074-7.81641l-4.17675-2.80469a14.37626,14.37626,0,0,1-10.75977,5.65772,14.14752,14.14752,0,0,1-8.53418-2.28662c-2.69824-1.71631-4.543-4.57666-5.4834-8.50244l-.27832-1.16407,31.11328-1.7456a18.96757,18.96757,0,0,0-5.93945-12.88281A17.139,17.139,0,0,0,770.0703,213.08936ZM757.00877,228.334l.55957-1.44628c2.1211-5.48,6.0586-8.41944,11.70313-8.73633,5.18945-.29541,9.30957,2.187,12.23926,7.36279l.793,1.40088Zm13.07422-8.20556q-.3457,0-.70019.02a10.32527,10.32527,0,0,0-9.30762,6.01025l18.8252-1.05566C776.60155,221.76318,773.70018,220.12842,770.083,220.12842Z"/><path class="cls-16" d="M797.29179,247.8991,795.259,211.65837l7.46779-.41889.33757,6.01816a30.42265,30.42265,0,0,1,5.67486-5.67211,10.98028,10.98028,0,0,1,5.87935-2.02661,11.92821,11.92821,0,0,1,8.59432,2.77883,10.32187,10.32187,0,0,1,3.93168,7.62328l1.46857,26.18119-7.64456.4288-1.3429-23.94085a6.6607,6.6607,0,0,0-2.18412-4.76886,6.547,6.547,0,0,0-4.96169-1.6606,8.434,8.434,0,0,0-6.40919,3.59812,11.60254,11.60254,0,0,0-2.32956,7.95271l1.10635,19.72375Z"/><path class="cls-16" d="M796.34959,248.95313l-2.1455-38.23731,9.46484-.53076.25391,4.51514a26.67661,26.67661,0,0,1,4.23632-3.9292,12.01,12.01,0,0,1,6.40332-2.21045,12.963,12.963,0,0,1,9.29,3.0083,11.33039,11.33039,0,0,1,4.29,8.33594l1.52539,27.17968-9.6416.54053-1.39844-24.93848a5.65643,5.65643,0,0,0-1.85742-4.08349,5.55009,5.55009,0,0,0-4.23535-1.40381,7.42149,7.42149,0,0,0-5.6709,3.207,10.54546,10.54546,0,0,0-2.125,7.28906l1.16309,20.72217Zm-.03613-36.35254,1.9209,34.24414,5.55859-.312-1.0498-18.72509a12.62411,12.62411,0,0,1,2.53223-8.61573,9.434,9.434,0,0,1,7.14843-3.98974,7.53766,7.53766,0,0,1,5.68848,1.91748,7.65706,7.65706,0,0,1,2.51172,5.45459l1.28711,22.94238,5.64746-.31689-1.41211-25.18262a9.28371,9.28371,0,0,0-3.57324-6.91016,10.84283,10.84283,0,0,0-7.89942-2.54931,10.04078,10.04078,0,0,0-5.35449,1.84228,29.58468,29.58468,0,0,0-5.47656,5.48584l-1.63086,2.02246-.42774-7.61474Z"/><path class="cls-16" d="M837.9363,198.68856l7.6435-.42874.59137,10.54276,7.55564-.42381.39179,6.98458-7.55565.42381,1.641,29.25616-7.6435.42874-1.64105-29.25616-6.01869.3376-.39671-7.07243,6.01869-.3376Z"/><path class="cls-16" d="M839.61815,246.52637l-1.64063-29.25586-6.01953.33789-.50879-9.06983,6.01856-.3374-.58594-10.45508,9.64063-.54052.59082,10.543,7.55566-.42383.50391,8.98095-7.55567.42383,1.6416,29.25635Zm.24414-31.36524,1.64062,29.25684,5.64649-.3169-1.6416-29.25634,7.55566-.42383-.2793-4.98779-7.55566.42382-.59082-10.543-5.64648.3169.58593,10.45508-6.01855.3374.28418,5.07568Z"/><path class="cls-16" d="M890.97684,206.28933l7.64456-.42881,2.03283,36.24074-7.64456.4288-.4041-7.20422q-5.117,8.528-13.37607,8.99071A15.92383,15.92383,0,0,1,866.67984,239.38a19.69853,19.69853,0,0,1-5.83975-13.37707,19.27183,19.27183,0,0,1,4.37251-13.57561,15.71526,15.71526,0,0,1,11.695-6.36233,15.31852,15.31852,0,0,1,8.21338,1.87481,16.59742,16.59742,0,0,1,6.26981,5.72947Zm2.07685,18.171a11.56538,11.56538,0,0,0-4.04078-8.29993,12.01421,12.01421,0,0,0-16.98927.93067,11.182,11.182,0,0,0-3.14417,8.46085,12.06175,12.06175,0,0,0,4.00989,8.54428,11.51283,11.51283,0,0,0,8.74,3.1232,12.21705,12.21705,0,0,0,11.42434-12.75907Z"/><path class="cls-16" d="M878.24217,245.34424a16.983,16.983,0,0,1-12.2666-5.25391,20.7563,20.7563,0,0,1-6.13379-14.03125,20.32131,20.32131,0,0,1,4.5918-14.25781,16.73724,16.73724,0,0,1,12.418-6.73486,16.35521,16.35521,0,0,1,8.74121,1.9917,18.0795,18.0795,0,0,1,4.62109,3.49511l-.292-5.20605,9.6416-.54151,2.14551,38.2378-9.6416.5415-.29492-5.249c-3.34082,4.35644-7.53028,6.70117-12.48731,6.979Q878.75926,245.34424,878.24217,245.34424Zm-.48633-38.30322q-.39551,0-.793.02246c-4.3418.24316-7.93067,2.20263-10.96973,5.98974a18.38472,18.38472,0,0,0-4.15527,12.89356,18.816,18.816,0,0,0,5.54589,12.72265,14.826,14.826,0,0,0,11.79,4.64844c5.20117-.2915,9.31446-3.07422,12.57422-8.50683l1.67383-2.78956.53027,9.45411,5.64746-.3169L897.6787,206.915l-5.64747.31689.57129,10.18018-2.05371-3.20313a15.67585,15.67585,0,0,0-5.89941-5.3872A14.489,14.489,0,0,0,877.75584,207.041Zm3.11719,31.1997a12.48078,12.48078,0,0,1-8.6582-3.40674,13.07355,13.07355,0,0,1-4.333-9.22656,12.19347,12.19347,0,0,1,3.4043-9.19238,13.01388,13.01388,0,0,1,18.38965-1.00244,12.576,12.576,0,0,1,4.376,8.9917v.00049a13.21562,13.21562,0,0,1-12.36719,13.813Q881.27586,238.24048,880.873,238.24072Zm.17676-24.15967q-.3545,0-.71777.02051a10.68885,10.68885,0,0,0-7.57227,3.666,10.13263,10.13263,0,0,0-2.88184,7.728,11.00105,11.00105,0,0,0,3.68653,7.86279,10.45026,10.45026,0,0,0,8.00879,2.8623,11.07862,11.07862,0,0,0-.52344-22.13965Z"/><path class="cls-16" d="M911.85273,237.50713a4.64382,4.64382,0,0,1,1.21719-3.43961,4.53777,4.53777,0,0,1,3.25847-1.61467,4.58618,4.58618,0,0,1,3.46306,1.23764,4.64386,4.64386,0,0,1,1.59422,3.28192,4.54919,4.54919,0,0,1-1.21719,3.43962,4.65792,4.65792,0,0,1-3.30539,1.57323,4.73283,4.73283,0,0,1-5.01036-4.47813Zm-2.03886-52.06022,7.37993-.414,2.363,42.12711-7.37993.414Z"/><path class="cls-16" d="M916.55565,242.99414a5.73262,5.73262,0,0,1-5.70117-5.43066h0a5.62773,5.62773,0,0,1,1.46484-4.15674,5.5232,5.5232,0,0,1,3.95313-1.95264,5.84521,5.84521,0,0,1,6.11132,5.46192,5.53617,5.53617,0,0,1-1.47363,4.168,5.65641,5.65641,0,0,1-3.99023,1.89991C916.79686,242.99072,916.67577,242.99414,916.55565,242.99414Zm-3.70508-5.543a3.73366,3.73366,0,0,0,3.957,3.53565,3.66776,3.66776,0,0,0,2.62207-1.24756,3.558,3.558,0,0,0,.958-2.71094,3.64907,3.64907,0,0,0-1.26855-2.59766,3.60187,3.60187,0,0,0-2.73536-.97949,3.54358,3.54358,0,0,0-2.56347,1.27735,3.65375,3.65375,0,0,0-.96973,2.72265Zm-1.61621-8.82226-2.47559-44.12452,9.377-.52636,2.47558,44.12451Zm-.36621-42.23975,2.251,40.13037,5.38281-.30176-2.251-40.13037Z"/><path class="cls-17" d="M114.14941,366.10687s43.52588-13.07879,52.1554-12.8486,19.55013,2.34926,22.30512,2.2323-1.44132-9.96374-1.52526-10.69785-21.39154-.43177-29.15731,1.67021-35.51757,10.04957-38.66268,12.10861S114.14941,366.10687,114.14941,366.10687Z"/><path class="cls-17" d="M320.08512,350.06562s-45.09117-5.28049-53.56259-3.68192-18.88865,5.33424-21.62476,5.66613-.232-9.56746-.271-10.2688,21.02264-3.83255,29.02927-3.10735,36.69152,3.72528,40.13458,5.1507S320.08512,350.06562,320.08512,350.06562Z"/></g></g></svg>