<svg xmlns="http://www.w3.org/2000/svg" viewBox="0 0 1027.79012 1083.19071"><defs><style>.cls-1{fill:#3c3c3b;}.cls-2{fill:#f07d19;}.cls-3{fill:#a85317;}.cls-4{fill:#723b10;}.cls-5{fill:#ae5a30;}.cls-6{fill:#944315;}.cls-7{fill:#d49a5f;}.cls-8{fill:#1d6b8d;}.cls-9{fill:#548399;}.cls-10{fill:#dadada;}.cls-11{fill:#432918;}.cls-12{fill:#b2b2b2;}.cls-13{fill:#b98248;}.cls-14{fill:#2a1e15;}.cls-15{fill:#d48b5f;}.cls-16{fill:#a76744;}.cls-17{fill:#202020;}.cls-18{fill:#d28458;}.cls-19{fill:#2e0e0d;}.cls-20,.cls-21{fill:#4a3726;}.cls-21{opacity:0.13;}.cls-22{fill:#a36d3e;}.cls-23{fill:#1d1d1b;}.cls-24{fill:#ededed;}.cls-25{fill:#9d9d9c;}.cls-26{fill:#7d4e24;}.cls-27{fill:#ac5117;}</style></defs><title>luiska</title><g id="Layer_2" data-name="Layer 2"><g id="Layer_5" data-name="Layer 5"><polygon class="cls-1" points="286.806 1083.191 262.806 1083.068 263.189 1008.447 24.783 969.484 24.783 1037.172 0.783 1037.172 0.783 941.243 287.294 988.068 286.806 1083.191"/><polygon class="cls-1" points="598.233 858.839 574.234 858.546 582.087 215.734 662.174 239.457 789.723 775.992 789.723 811.887 765.723 811.887 765.723 778.806 642.037 258.524 605.698 247.759 598.233 858.839"/><polygon class="cls-2" points="0 973.064 242.927 1013.98 477.5 843.688 731.978 428.789 792.124 415.974 691.791 415.958 563.29 415.937 505.978 415.928 331.017 650.917 170.166 873.605 0 973.064"/><path class="cls-3" d="M0,879.61685s165.89962-19.03144,212.01353-115.91563C305.55633,617.88119,457.201,407.639,457.201,407.639s33.55208-72.5889,98.21708-65.43443,119.48937,9.91489,119.48937,9.91489v78.49827L547.75855,419.89427s-22.97872-6.12766-41.3617,29.10638S268.67149,815.84472,268.67149,815.84472,215.22894,939.36153,0,973.06365Z"/><polygon class="cls-2" points="691.791 415.958 674.907 449.725 604.72 449.725 563.29 415.937 691.791 415.958"/><path class="cls-4" d="M719.85954,482.8946c-1.09412.08622-48.8376,18.13472-48.8376,18.13472l252.36816,4.60325,45.62-15.84027Z"/><polygon class="cls-5" points="969.01 489.792 969.01 501.002 923.72 521.938 923.39 505.633 969.01 489.792"/><polygon class="cls-6" points="923.39 505.633 923.72 521.938 671.022 517.853 671.022 501.029 923.39 505.633"/><path class="cls-4" d="M740.8218,552.73677c-1.09412.08622-48.8376,18.13471-48.8376,18.13471l252.36816,4.60326,45.62-15.84028Z"/><polygon class="cls-5" points="989.972 559.634 989.972 570.844 944.682 591.78 944.352 575.475 989.972 559.634"/><polygon class="cls-6" points="944.352 575.475 944.682 591.78 691.984 587.695 691.984 570.871 944.352 575.475"/><path class="cls-4" d="M755.12735,620.151c-1.09412.08622-48.8376,18.13471-48.8376,18.13471l252.36815,4.60326,45.62-15.84028Z"/><polygon class="cls-5" points="1004.278 627.049 1004.278 638.258 958.987 659.194 958.658 642.889 1004.278 627.049"/><polygon class="cls-6" points="958.658 642.889 958.987 659.194 706.29 655.109 706.29 638.286 958.658 642.889"/><path class="cls-4" d="M775.8082,697.85164c-1.09412.08622-48.8376,18.13472-48.8376,18.13472l252.36816,4.60325,45.62-15.84028Z"/><polygon class="cls-5" points="1024.959 704.749 1024.959 715.959 979.668 736.895 979.339 720.59 1024.959 704.749"/><polygon class="cls-6" points="979.339 720.59 979.668 736.895 726.971 732.81 726.971 715.986 979.339 720.59"/><path class="cls-7" d="M482.33076,123.43978S480.415,104.66618,503.77757,91.73s23.42528-28.42553,22.26583-30.46808-6.29289-6.46809-15.81128-2.04256-12.24179,6.46809-12.24179,6.46809-7.23087,1.02128-5.14735-6.80851,4.80693-39.48936,5.48778-46.29787a31.41709,31.41709,0,0,0-.47505-8.38162,5.06627,5.06627,0,0,0-8.45415-2.814,10.69991,10.69991,0,0,0-2.64527,4.04672c-2.383,6.46809-7.14894,19.06383-8.17021,23.48936s-2.5532,9.70213-2.5532,9.70213-1.01919,6.69323-2.04047-.4557-.31946-10.53067-.17229-15.37409c.21994-5.45206.54666-7.87449-.06143-13.617-1.70419-7.48936-12.19389-6.12766-13.896-2.04255s-3.126,22.80851-1.563,33.3617-2.83816,13.95745-2.83816,13.95745-1.49471-18.04256-3.99357-22.46809c-6.92423-2.383-10.32865,8.17021-10.32865,14.29787s-1.3617,23.82979,0,29.2766,7.48936,18.7234,6.12766,25.19149-2.732,8.51064-2.732,8.51064l36.77455,20.766Z"/><path class="cls-7" d="M668.45177,180.8234s10.89031-14.98013-4.30736-36.93885-9.22546-36.86238-7.28014-38.17846,4.2879-2.94693,10.85461,5.24229,8.68085,9.19149,8.68085,9.19149,9.66884,6.10238,11.27554-1.839S700.888,80.77838,703.29868,74.37461a31.4171,31.4171,0,0,1,4.14449-7.30071,5.06628,5.06628,0,0,1,8.825,1.229,10.69994,10.69994,0,0,1,.5752,4.80027c-.73418,6.85388-2.05148,20.25656-3.09976,24.67578a36.25711,36.25711,0,0,0-.8792,8.68138s-2.56168,6.70885,1.52542.75521,4.32664-8.40765,6.34369-12.81354c2.22186-4.98364,3.00385-7.29954,6.09666-12.17612,4.85016-5.95573,13.6467-.08132,13.35964,4.33489s-7.31818,21.82761-13.40119,30.59174-1.78895,10.77-1.78895,10.77,7.48449-12.50856,11.68746-15.366c7.26266.93656,5.63141,11.90465,2.91269,17.39616s-9.35248,21.96006-12.98946,26.23725-15.01907,13.45674-16.6685,19.85751-1.32762,8.83924-1.32762,8.83924l-42.17026,2.294Z"/><path class="cls-8" d="M400.2569,606.98331l-79.77206,83.60525s-8.64006,12.26666-38.85055,110.58028c12.94735,17.556,17.26314,52.13759,17.26314,52.13759l90.83831-137.44127,70.3607-61.2766-60.9733,60.25532L365.07279,817.55445l20.14033,58.52,98.4995-150.44754,64.82529-43.39116c6.85842-7.07634,10.36223-40.153,9.74478-49.98823-.658-10.48058-1.4802-23.39124-1.87679-28.87633-32.36838,2.926-152.04219-5.65581-152.04219-5.65581S407.09248,600.39221,400.2569,606.98331Z"/><path class="cls-9" d="M269.80619,815.0836l4.47528-10.92373s6.23391-4.6816,18.70173-1.95067,19.18127,30.43041,14.14619,41.35414-8.293,13.19816-8.293,13.19816-2.67234-24.38119-12.90476-30.42826A114.79277,114.79277,0,0,1,269.80619,815.0836Z"/><path class="cls-9" d="M363.92027,824.51789l4.47528-10.92373s6.23391-4.6816,18.70173-1.95067,19.18127,30.43041,14.14619,41.35414-17.0565,23.59093-17.0565,23.59093,6.96011-37.10187-3.27231-43.14893A161.384,161.384,0,0,0,363.92027,824.51789Z"/><path class="cls-1" d="M239.05773,725.62692s19.07873,6.39263,39.07153,62.41884c2.705,8.40931,5.8344,25.5233,9.83151,34.09019s8.21092,19.90637,13.19431,21.44347c.54179,6.93148,1.37726,8.70774-9.82474,18.84679S239.05773,725.62692,239.05773,725.62692Z"/><path class="cls-10" d="M207.07373,734.54865s6.71141-8.885,10.37447-10.04948,23.53176-8.94461,37.00115,19.2927c12.23395,25.53025,12.76526,36.69383,15.55182,59.24547s11.926,30.32329,11.926,30.32329,11.02751,14.46172,10.87566,25.61763c-3.98223,10.47348-9.70736,14.62682-9.70736,14.62682Z"/><path class="cls-11" d="M207.07373,734.54865s-20.2578,29.09021-1.31788,68.2083A200.12433,200.12433,0,0,0,234.13,845.42315s10.71176,9.94615,11.97763,14.43414,16.63805,27.21963,31.44407,18.04426,10.88083-19.76461,7.48627-28.06211-11.458-11.51876-17.78938-29.62307c-6.4103-18.33008-3.39072-35.67815-13.54031-58.556C244.95556,734.82256,223.214,720.75987,207.07373,734.54865Z"/><path class="cls-1" d="M370.63213,885.39093s14.55341-8.5915,18.98966-16.49909c1.16633-16.34678-7.0852-31.806-3.65876-44.05582s.073-28.82518-5.3251-45.29122-19.00976-40.9815-33.74221-40.98595S370.63213,885.39093,370.63213,885.39093Z"/><path class="cls-10" d="M320.44217,742.822s12.78149-7.57814,17.31783-7.55986,32.73325,11.23125,39.05366,45.00716,3.98748,56.1228,1.86511,61.98744-3.02681,19.96462-2.51542,25.16179-1.66874,15.31074-6.73089,19.02783-16.05668,4.411-16.05668,4.411Z"/><path class="cls-11" d="M334.42168,741.02869s33.41515,14.925,38.21632,55.66047a170.0768,170.0768,0,0,1-1.46909,47.88329s-3.90316,12.99584-2.564,17.26348.33479,29.893-17.51892,28.95176-20.19781-11.43044-21.7575-19.79228,4.98711-12.01674.64961-29.78027c-4.39159-17.98507-15.275-28.18053-20.79934-54.75214C303.159,760.73936,312.90112,736.88,334.42168,741.02869Z"/><polygon class="cls-12" points="475.081 362.61 485.681 348.98 492.345 347.163 492.345 358.672 475.081 362.61"/><path class="cls-13" d="M475.82819,312.91074l4.2477,86.90579s10.91522,15.33,25.90246,16.111,30.27909-8.43883,32.51393-11.04989,18.79835-59.852,18.79835-59.852l6.094-13.83072Z"/><path class="cls-7" d="M514.60121,348.39725s-14.356-2.5281-19.97346-9.26771-12.22639-11.78633-13.09037-13.38994-5.83424-5.29859-6.91185-12.82886-2.65579-23.97765-2.65579-23.97765l-.86732-35.86607,8.11994-31.93518s19.613-32.41664,20.69378-32.25405,26.30177-3.41138,27.74279-3.1946l33.50371,5.04023,21.016,14.58226,5.17442,31.72471-.0477,27.255s-5.79267,23.8119-7.41539,27.25186a168.53587,168.53587,0,0,0-6.99778,19.57813c-1.01061,4.26886-4.02332,14.49947-8.74487,18.94689s-13.38994,13.09037-15.76825,14.20622-11.15194,3.11163-14.611,4.06488S514.60121,348.39725,514.60121,348.39725Z"/><path class="cls-14" d="M472.08983,260.95755s7.05513-27.30606,8.46107-29.305,4.74067-7.02339,4.74067-7.02339,2.09453-11.474,4.02331-14.49947,7.26561-14.01171,12.41757-13.97348,25.61634-1.304,30.65991-.5453a127.49011,127.49011,0,0,1,19.18279,4.72786c5.60149,1.9479,13.58129,2.78,17.93943,5.646s8.23167,1.60676,10.1573,5.94894,4.64193,13.2242,4.677,15.43992-2.34639,10.69926-2.33043,15.491a47.46064,47.46064,0,0,0,1.56222,11.65567c.7014,2.68437-.02227,9.94366-.23905,11.38468l-1.73428,11.52816c-.59615,3.96281,5.136-4.75347,5.136-4.75347l6.28693-.15943,2.81819-18.73326L596.014,242.891l-.40477-19.34951s-1.05377-22.89237-3.86249-26.26218-9.1427-7.28529-14.72507-11.80917-9.42324-5.93061-17.07787-8.9242-13.9065-7.55679-21.07652-6.425-18.02086-3.06408-24.74135-.02261-9.56016.08147-16.8035,4.14952-13.47932,18.48025-16.45379,23.5589-6.541,11.54186-8.57816,15.28788-.65036,4.32306-.97553,6.48459-5.84686,24.17216-5.84686,24.17216l.39218,9.63761,4.73751.34429Z"/><path class="cls-15" d="M582.212,278.55907s3.63014-7.80447,9.9819-5.12969,4.5112,10.01166,2.56435,13.15726-4.78422,10.57812-6.43033,12.54093-4.458,5.9607-4.98721,7.84593-3.8937,6.29119-6.33153,6.17005-2.87888-7.80126-2.87888-7.80126l8.0817-26.78322"/><path class="cls-16" d="M472.8211,260.219s-1.17326-8.52709-8.03085-7.83949-7.25713,8.24125-6.32194,11.82042,1.4602,11.51752,2.456,13.87776,2.50693,7.00849,2.45806,8.966,1.87038,7.15833,4.236,7.7598,5.04672-6.60894,5.04672-6.60894l.1561-27.80466"/><path class="cls-17" d="M574.52389,258.59968l-1.39659-.323s1.91609.67211-1.37023-.44694a44.559,44.559,0,0,1-6.96356-3.29042s.00184.03785.01159.1221a19.60739,19.60739,0,0,0-12.46484-7.19637c-8.22084-1.23673-15.79771,1.35015-19.736,8.11839.01178-.02827.031-.05553.04275-.08389-8.13948,3.5247-13.01758-1.37125-13.01758-1.37125-1.61-7.859-8.18-12.8148-16.585-14.07923a19.64322,19.64322,0,0,0-14.8738,3.81364,42.54529,42.54529,0,0,1-7.25762,1.01559c-3.46992.10265-1.44109.0241-1.44109.0241l-1.4298-.10227-.98006,5.264s3.26713.85265,4.19905,3.29839c-.17663.67333-.52249,2.53069-.62768,3.22993A19.69965,19.69965,0,0,0,497.184,279.00449c11.09667,1.66936,19.63756-5.28735,22.77356-15.60056,0,0,1.34686-4.20037,5.627-3.68436s4.24133,6.877,4.24133,6.877a11.62224,11.62224,0,0,1,.14935-2.3931c-1.11336,11.22893,6.30405,20.68246,16.50463,22.217a19.69333,19.69333,0,0,0,22.40491-16.55171,30.75522,30.75522,0,0,0,.26557-4.42128,5.0409,5.0409,0,0,1,4.76146-1.52847Zm-76.88486,17.38a16.64167,16.64167,0,1,1,18.93227-13.9808A16.63444,16.63444,0,0,1,497.639,275.97963Zm49.2959,7.416a16.64167,16.64167,0,1,1,18.93227-13.9808A16.63443,16.63443,0,0,1,546.93493,283.3956Z"/><polygon class="cls-17" points="478.042 244.8 470.058 254.545 471.83 257.437 480.076 251.118 478.042 244.8"/><path class="cls-17" d="M574.52389,258.59968,586.77133,273.332a4.287,4.287,0,0,0-2.15212,1.90849c-6.814-8.32039-10.70739-11.32144-10.70739-11.32144Z"/><path class="cls-18" d="M525.15493,261.38137c-3.07638-.38759-9.9138,13.88963-9.9138,13.88963s-5.89988,2.64053-7.16148,3.68a7.22867,7.22867,0,0,0-2.41169,5.011c-.1315,2.09857.15623,3.24708.92616,3.63921a22.52227,22.52227,0,0,0,3.45351,1.53266,20.01371,20.01371,0,0,0,5.76408.86714c.38735-.12594,1.96307,1.03213,3.21042,1.31188s2.91391-.39055,3.37778-.41287,5.79327,1.89758,7.609,2.07217,4.83331-.29247,5.239-1.15246a13.50235,13.50235,0,0,0-.53723-7.449c-1.06643-2.09458-5.16022-6.10559-5.58451-6.9586s.034-8.79694-.70807-11.21113S528.13093,261.75631,525.15493,261.38137Z"/><path class="cls-19" d="M515.79786,288.67084a5.26012,5.26012,0,0,0-4.80287-1.95057c-1.86185.94794-1.26779,1.89693-.32518,2.16153s2.95621.44473,3.99989.60174A.91222.91222,0,0,0,515.79786,288.67084Z"/><path class="cls-19" d="M524.166,290.176a5.26012,5.26012,0,0,1,5.16419-.45114c1.50053,1.45377.65356,2.186-.32518,2.16153s-2.95621-.44472-3.99989-.60173A.91223.91223,0,0,1,524.166,290.176Z"/><path class="cls-20" d="M520.19721,234.33447s2.91232-5.00341.18084-6.5654-16.46553-3.9029-26.2198-.89069a50.18536,50.18536,0,0,0-6.2723,3.69862s14.50754-2.47616,19.46012-1.3421S520.19721,234.33447,520.19721,234.33447Z"/><path class="cls-20" d="M541.044,237.23611s-1.01753-5.69915,2.08418-6.22843,16.80468,1.98726,24.93192,8.16521a50.18393,50.18393,0,0,1,4.62125,5.62722s-12.77563-7.30637-17.81654-7.94157S541.044,237.23611,541.044,237.23611Z"/><polygon class="cls-21" points="514.803 218.75 533.078 223.299 551.646 224.293 532.835 224.912 514.803 218.75"/><path class="cls-22" d="M573.51937,305.4866c-.46881,1.61113-8.45626,5.63682-11.98162,4.24461a48.82038,48.82038,0,0,1-12.61089-7.94425c-4.985-4.07834-16.54175-4.16332-23.21035-6.96031-6.66981-2.79017-18.09293-1.28545-25.32454-.34118-7.2396.94991-8.84273,6.65079-16.76357,4.74445-7.928-1.90741-11.66206-16.77772-11.66206-16.77772s.07753,21.832.121,26.49828,2.85556,10.80012,4.51581,14.63053c1.66843,3.82472,3.74908,4.85948,9.06254,9.23238,5.31223,4.37989,9.95244,13.17818,14.529,15.06494,5.45615,2.25723,10.22,1.53748,15.69462,2.36107,5.47448.82357,15.58583.55784,17.62578-.56476,2.03261-1.1237,15.95835-4.39616,18.36383-5.47079,2.39729-1.06884,9.7629-10.33833,14.41024-13.92756,4.64854-3.59608,11.51606-31.9019,11.51606-31.9019S573.98735,303.8822,573.51937,305.4866Zm-36.0166,24.74461a24.05777,24.05777,0,0,1-5.62361,1.8967s-6.497,5.97364-8.95509,7.39773c-2.44987,1.4183-8.755-1.31708-12.04265-1.81167-3.28032-.49349-5.98063-9.84787-8.56185-10.033-2.58753-.193-7.51753-12.06916-8.60857-14.7278-1.09-2.66549.56738-8.35268,7.61488-11.37761,7.03933-3.01923,23.11608.606,23.11608.606,9.81854,1.5822,17.64237,8.30323,18.821,10.37945,1.17951,2.06934-.14918,10.14273-.72165,12.2156C541.78643,327.51015,541.10688,328.62225,537.50277,330.23121Z"/><path class="cls-23" d="M507.2341,305.91712c4.33808.54226,21.93434,2.03348,23.50694,3.66026s-3.85,10.49254-12.66174,7.00861S507.2341,305.91712,507.2341,305.91712Z"/><path class="cls-24" d="M402.50252,598.63113s4.93616-41.19153,3.91479-72.85108-.51062-58.21277,2.85926-90.38293c4.26306-25.53235,3.26843-34.72351,3.26843-34.72351s-34.72339-102.63819-26.49866-144c1.75464-13.43372,6.85693-31.99072,11.17957-46.468,32.17016-107.74463,31.14892-97.532,31.14892-97.532l40.85108-6.12757,24,21.9574s-35.91419,47.82276-45.62915,117.44678c-4.59986,32.96484-.00586,67.47217,10.90576,110.298,38.493,1.65952,24.462,28.1695,46.3624,30.42548,30.10331,2.7234,32.98162-18.89362,52.70144-20.21271,47.99875-3.21071,84.114-132.90686,94.468-173.10644,28.5957-32.68091,33.70215-28.08509,33.70215-28.08509l26.55322,30.12769s-19.915,86.29785-38.29785,130.72339c-25.532,33.70215-56.17017,94.468-89.36182,120.51062-1.532,34.21277-18.38281,105.70215-18.89355,108.766S555.625,604.979,555.625,604.979L479.0638,616.67361Z"/><path class="cls-10" d="M477.956,344.97154s8.32936,15.86142,13.10158,24.37206c-7.58089,8.252-17.09515,17.33007-17.09515,17.33007s-10.66891-26.97873-9.98823-31.78724A30.12679,30.12679,0,0,1,477.956,344.97154Z"/><polygon class="cls-25" points="550.074 358.893 553.481 366.953 547.148 368.751 550.074 358.893"/><path class="cls-10" d="M555.853,358.89281h-4.77883s.08456,3.40529-6.24891,7.35533c-8.90689,5.555-23.14893,8.59574-23.14893,8.59574l9.95744,20.51064s30.12492-8.68085,30.72341-29.12766c1.19149-15.5338,3.02128-17.51064-7.413-16.70175-.69169,2.36132-2.92743,9.29217-2.92743,9.29217l-1.992.07553"/><polygon class="cls-12" points="498.187 384.716 491.058 369.344 483.713 377.027 498.187 384.716"/><polygon class="cls-12" points="511.599 386.674 521.676 374.844 527.419 386.674 511.599 386.674"/><path class="cls-26" d="M402.33662,591.78005s36.44976,12.10933,57.89474,14.29656,96.26966-7.14828,96.26966-7.14828v10.86889s-56.44171,15.33376-94.56937,11.88366-59.595-19.93389-59.595-19.93389Z"/><path class="cls-10" d="M425.80457,112.57076l-11.30909,29.68637s0,9.30923,8.59313,6.44485,22.82412-2.86438,22.82412-2.86438,11.82016-3.58041,13.83258-11.81553c6.40537,0-4.16071,11.47817,0,15.22732S475.54,164.5654,475.54,164.5654s1.51287,7.27028,6.755,0,12.17507-32.0955,12.17507-32.0955,6.7112-22.72913-45.49651-32.7573A20.60042,20.60042,0,0,0,425.80457,112.57076Z"/><path class="cls-10" d="M717.3519,196.96138,707.50172,226.324s-5.692,7.12945-10.24809-.1-15.00189-15.569-15.00189-15.569-6.487-9.66888-2.92892-17.15505c-4.70164-3.75367-3.96411,11.22878-9.31049,11.66181s-20.95828,2.47371-20.95828,2.47371-5.55577,4.68136-4.95827-3.95855,10.68756-31.71509,10.68756-31.71509,8.97122-21.33994,53.42405,1.57473A19.226,19.226,0,0,1,717.3519,196.96138Z"/><path class="cls-1" d="M440.27906,599.31114l-2.69451,22.09677,31.479,5.8983,3.23343-24.00108ZM464.0897,620.151l-20.22188-3.09431,1.21276-11.48937,20.29788,2.74469Z"/><path class="cls-1" d="M443.86782,610.163c1.14893.12766,7.7234.95745,7.7234.95745l1.2766,1.73864-1.72341.94221-8.10638-.94221Z"/><path class="cls-27" d="M242.97665,920.53363S408.87626,901.50219,454.99018,804.618c93.5428-145.82,257.349-394.212,257.349-394.212s33.55207-72.5889,98.21708-65.43443,119.48936,9.91489,119.48936,9.91489v78.49826l-127.14893-10.7234s-22.97872-6.12766-41.3617,29.10638S511.64814,856.7615,511.64814,856.7615s-53.44256,123.51681-268.67149,157.21894Z"/><polygon class="cls-1" points="836.3 876.101 812.302 875.824 820.148 198.212 900.358 223.282 901.879 230.033 1027.79 788.855 1027.79 826.578 1003.79 826.578 1003.79 791.526 879.987 242.06 843.773 230.741 836.3 876.101"/></g></g></svg>