<svg xmlns="http://www.w3.org/2000/svg" viewBox="0 0 634.58647 939.70623"><defs><style>.cls-1{fill:#c19690;}.cls-2{fill:#010101;}.cls-3{fill:#bb938a;}.cls-4{fill:#855553;}.cls-5{fill:#b68b82;}.cls-6{fill:#95635a;}.cls-7{fill:#854e49;}.cls-8{fill:#ae7f77;}.cls-9{fill:#9d5a51;}.cls-10{fill:#c4a094;}.cls-11{fill:#483b39;}.cls-12{fill:#be998e;}.cls-13{fill:#a2716a;}.cls-14{fill:#bfa09d;}.cls-15{fill:#a05d66;}.cls-16{fill:#9a595d;}.cls-17{fill:#bc8d83;}.cls-18{fill:#bea9a6;}.cls-19{fill:#543b3b;}.cls-20{fill:#a56b60;}.cls-21{fill:#b7a39c;}.cls-22{fill:#35292b;}.cls-23{fill:#4e3531;}.cls-24{fill:#b98b7e;}.cls-25{fill:#bd9a8c;}.cls-26{fill:#a07167;}.cls-27{fill:#99625d;}.cls-28{fill:#ad7b7a;}</style></defs><title>pasis-low-poly</title><g id="Layer_2" data-name="Layer 2"><g id="Layer_2-2" data-name="Layer 2"><g id="Layer_2-3" data-name="Layer 2"><g id="Layer_4" data-name="Layer 4"><polygon class="cls-1" points="438.82 479.448 438.82 687.71 268.046 687.71 268.046 673.132 122.262 673.132 122.262 600.24 72.279 600.24 72.279 391.978 243.054 391.978 243.054 464.87 293.037 464.87 293.037 479.448 438.82 479.448"/><polygon class="cls-2" points="628.339 433.63 592.934 410.722 592.934 433.63 634.586 452.374 628.339 433.63"/><path class="cls-3" d="M167.29444,871.02512l86.17206,68.68111s62.47857-10.4131,74.97429-14.57833,41.65237-27.074,47.90023-29.15667a234.73342,234.73342,0,0,1,37.48714-6.24786c6.24786,0,33.3219-22.9088,33.3219-22.9088L224.30984,775.17933l-60.39595-16.661L157.666,814.74909Z"/><path class="cls-4" d="M193.07055,777.262s-8.33047-14.57833-24.99142,0,12.49571,106.21357,12.49571,106.21357l-33.3219-31.23929s-6.24786-52.06547,0-56.23071-27.074-116.62666-27.074-116.62666V633.56124L174.327,712.70076Z"/><path class="cls-5" d="M171.14177,618.67276,143.0877,687.70934,188.90532,777.262s78.7339,59.95283,114.34123,68.50487,156.39923,12.71727,156.39923,12.71727l68.72642-18.74357L508.30647,713.74207l-54.90855-48.94154H282.62317Z"/><polygon class="cls-2" points="320.111 691.875 372.176 721.032 447.151 723.114 499.216 704.371 520.042 688.337 499.216 683.545 320.111 691.875"/><ellipse class="cls-6" cx="309.69721" cy="452.3734" rx="210.34451" ry="120.7919"/><path class="cls-7" d="M497.13292,723.11386,507.546,743.94005c2.08262,4.16524-4.16523,33.3219-16.661,45.81761S465.89363,831.41,465.89363,831.41l12.49572,27.07405L507.546,812.66647,532.53744,760.601l20.82619-31.23928,20.82619-37.48715-37.48714-97.88308-66.64381,6.24785-97.52711,21.00345Z"/><path class="cls-8" d="M463.05425,471.117s31.996,24.99143,48.657,24.99143,41.65238-6.24786,41.65238-6.24786L595.016,525.26506l8.33047,89.55261s-20.82619,95.80048-35.40452,114.544-56.23071-12.49572-56.23071-20.82619S486.71982,602.322,486.71982,602.322s-33.3219-72.04693-40.61107-79.75846S439.38867,471.117,463.05425,471.117Z"/><path class="cls-9" d="M462.18877,229.99942s24.53105-56.69694,68.26605-46.28385S576.383,260.815,576.383,260.815s-6.35838,43.69248,10.30257,102.00581,10.4131,129.12237,10.4131,137.45284-2.03432,25.78652-2.03432,25.78652L551.281,489.86057s-54.14809,16.661-89.55261,0S432.57173,350.3251,432.57173,350.3251Z"/><path class="cls-10" d="M168.07913,183.71557,101.43532,456.53864l97.88309,49.98285s-18.74357-49.98285,0-66.64381,66.64381-43.735,81.22214-43.735,91.63523-4.16524,102.04833,6.24785,12.49571,31.23929,12.49571,31.23929l8.33048,37.48714,20.82619,10.41309,37.48714-6.24785s18.74357-62.47857,41.65238-72.89167,41.65237-22.9088,49.98285-20.82619-37.48714-24.99142-35.40452-47.90023,12.49571-58.31333,12.49571-58.31333l-2.08262-27.07405-50.68941-12.89451Z"/><path class="cls-11" d="M205.56627,212.87224s-43.735,85.38736-64.56119,104.13093-4.16524,49.98285-16.66095,62.47857,0,72.89166,0,72.89166L99.3527,533.59554,76.44389,437.79507s-14.57833-16.661-41.65237-16.661A60.272,60.272,0,0,1,45.20461,366.986c-12.49571-33.3219-14.57833-70.809,2.08262-91.63523S68.11342,221.2027,68.11342,221.2027s-22.90881-33.32191-2.08262-74.97429,72.89166-97.88308,87.47-97.88308h27.07405c6.24786,0,0-12.49572,14.57833-16.661s29.15667,6.24786,29.15667,6.24786,8.33047-16.66095,24.99143-18.74357,62.47856,22.90881,74.97428,27.07405c27.074-6.24786,31.23928-24.99143,39.56976-27.074s37.48714-27.074,81.22214-16.66095a330.83731,330.83731,0,0,1,77.0569,29.15666s31.23928,43.735,41.65237,68.72643,43.735,31.23928,33.32191,93.71785-14.57834,72.89166-14.57834,72.89166-33.3219-52.06547-41.65237-52.06547-47.90024-4.16524-62.47857,6.24786S436.737,244.1115,436.737,244.1115s-41.65238-20.82618-54.14809-24.99142-47.90024,14.57833-47.90024,14.57833-60.396-16.66095-64.56118-14.57833c-1.78238.89117-8.52231,4.83317-15.6506,9.05181a26.5407,26.5407,0,0,1-32.62807-4.2298C216.70251,218.585,210.77282,213.74,205.56627,212.87224Z"/><path class="cls-12" d="M190.98794,481.53006s87.47,52.06548,158.279,6.24786c16.661-33.3219,0-52.06547-16.661-58.31333-11.031-4.13664,56.23071-10.4131,72.89167,18.74357s-16.661,108.29618-52.06548,131.205c-2.08262,27.07405-4.16524,24.99143,4.16524,31.23929s20.82619,14.57833,20.82619,14.57833-56.23071,14.57833-77.0569,27.074c0,0-100.08831-11.03347-117.72927-27.38421S143.0877,491.94319,143.0877,491.94319Z"/><path class="cls-13" d="M126.42676,462.78649l54.14808,24.99143S157.666,498.191,157.666,508.60411s4.16524,66.6438,12.49572,85.38738,18.74357,56.23071,10.41309,64.56118S157.666,689.792,155.58341,693.95719s-12.49571-45.81761-35.40452-58.31333c-12.49571-39.56976-18.74357-97.88309-18.74357-97.88309Z"/><path class="cls-11" d="M430.48911,627.31339a258.61794,258.61794,0,0,1-31.23928-2.08262c-16.66095,4.16524-106.21357,29.15666-116.62666,37.48714s-10.4131,41.65238-10.4131,41.65238S374.2584,675.21362,411.74554,673.131s114.544,2.08262,127.03976,4.16524,39.56976-6.24785,39.56976-6.24785,8.33047-22.90881,0-27.07405-77.0569-35.40452-81.22214-35.40452S430.48911,627.31339,430.48911,627.31339Z"/><path class="cls-14" d="M380.488,688.62855l2.01144,17.98929s-4.44311,8.36733-11.76329,8.76208-17.37177-4.48168-18.24583-20.69C361.95917,688.76075,380.488,688.62855,380.488,688.62855Z"/><path class="cls-14" d="M409.76868,687.04956l2.01144,17.98928s-4.44308,8.36734-11.76329,8.76209-17.37177-4.48169-18.24583-20.69C391.2399,687.18175,409.76868,687.04956,409.76868,687.04956Z"/><path class="cls-14" d="M411.40138,687.07377l.0213,18.09657s4.91046,7.86295,11.62063,7.50106,15.3657-6.24709,14.49164-22.4554C428.29683,685.29572,411.40138,687.07377,411.40138,687.07377Z"/><path class="cls-14" d="M429.21887,729.32536l-.81238-12.90953s3.81816-5.79768,9.54536-5.79768,13.36345,3.86512,13.36345,15.46049C443.67905,729.94383,429.21887,729.32536,429.21887,729.32536Z"/><path class="cls-14" d="M410.4753,729.32536l-.81238-12.90953s3.81816-5.79768,9.54536-5.79768,13.36345,3.86512,13.36345,15.46049C424.93548,729.94383,410.4753,729.32536,410.4753,729.32536Z"/><path class="cls-14" d="M393.66665,731.408l-.66468-12.90953s3.12393-5.79769,7.80982-5.79769,10.93375,3.86513,10.93375,15.4605C405.49769,732.02645,393.66665,731.408,393.66665,731.408Z"/><path class="cls-14" d="M437.88461,685.758l.02129,18.09657s4.91047,7.863,11.62064,7.50106,15.3657-6.24709,14.49164-22.4554C454.78,683.98,437.88461,685.758,437.88461,685.758Z"/><path class="cls-14" d="M464.08247,683.97787l.28088,18.08259s3.69041,7.92867,8.57056,7.66554,11.0956-6.01683,10.22151-22.22513C476.35729,682.449,464.08247,683.97787,464.08247,683.97787Z"/><path class="cls-14" d="M485.42944,684.93567l.11036,14.92185s3.61392,6.5092,8.494,6.24608,11.14663-5.07054,10.42558-18.43983C497.71243,683.55821,485.42944,684.93567,485.42944,684.93567Z"/><path class="cls-14" d="M351.38026,690.19821l1.8384,17.99862s-3.62974,8.32349-9.72989,8.65246-14.525-4.63518-15.3991-20.84354C335.93187,690.16433,351.38026,690.19821,351.38026,690.19821Z"/><path class="cls-15" d="M320.11031,691.87457s158.279,4.16524,204.09665-8.33047c-20.82618-8.33048-95.80047-4.16524-95.80047-4.16524Z"/><path class="cls-14" d="M448.413,729.45527l-.66467-12.90953s3.12393-5.79769,7.80982-5.79769,10.93375,3.86513,10.93375,15.4605C460.244,730.07374,448.413,729.45527,448.413,729.45527Z"/><path class="cls-15" d="M320.11031,691.87457c2.08262,0,68.72642,33.32191,118.70928,22.90881A309.93368,309.93368,0,0,0,524.207,683.5441s-33.76676,45.49-56.23071,49.98285c-31.23928,6.24786-66.6438,4.16524-114.544-8.33047C338.85388,721.03124,320.11031,691.87457,320.11031,691.87457Z"/><path class="cls-16" d="M480.472,598.60092a31.8372,31.8372,0,0,0,24.99142-4.60943c12.49572-8.33048,4.16524-27.074-8.33047-35.40453s-37.48714-22.90881-41.65238-41.65238-19.78488-37.28979-19.78488-37.28979Z"/><path class="cls-17" d="M436.737,480.64409a27.76064,27.76064,0,0,0-20.82619,21.71216c-4.16524,18.74357-18.74357,60.396-39.56976,70.80905s-22.90881,39.56976-6.24786,41.65237,35.40453-10.41309,58.31333-6.24785,45.81762,6.24785,56.23071-8.33048-29.15666-56.23071-29.15666-72.89166S453.39792,488.08858,436.737,480.64409Z"/><path class="cls-18" d="M240.97079,471.117s-2.08262-35.40452,49.98285-33.3219,54.1481,33.3219,54.1481,33.3219-12.42638,20.82619-43.735,20.82619C251.38388,491.94316,240.97079,471.117,240.97079,471.117Z"/><circle class="cls-19" cx="290.95364" cy="471.11697" r="18.74357"/><path class="cls-20" d="M507.546,400.30792s54.1481-10.41309,70.809,12.49572,18.74357,43.735,4.16523,54.14809-54.14809,35.40452-70.809,29.15667S463.811,477.36482,463.811,477.36482s0-52.06547,10.41309-56.23071S507.546,400.30792,507.546,400.30792Z"/><path class="cls-21" d="M491.61523,473.7089a10.27409,10.27409,0,0,1-9.30931-13.782c4.47485-12.49781,13.08218-30.23722,27.32274-36.7102,22.90881-10.41309,56.23075,2.08262,62.4786,16.661s-25.35331,29.68177-37.48714,33.32191C513.79387,479.44744,505.54961,474.15417,491.61523,473.7089Z"/><circle class="cls-19" cx="522.12435" cy="452.3734" r="18.74357"/><path class="cls-22" d="M588.76815,427.382c-45.81761-8.33048-129.12237,29.15667-141.61809,41.65238-14.57833-8.33048-29.15666-2.08262-60.39594,4.16524-52.06548-29.15667-141.61809-10.4131-172.85738-2.08262s-39.56976,0-39.56976,0S101.43532,427.382,68.11342,410.721s-43.735,10.41309-43.735,10.41309l31.23929,4.16524,122.87451,66.64381s20.82619,8.33047,22.90881,35.40452c2.72835,35.36289,35.40452,60.396,47.90024,64.56119s31.23928,4.16523,81.22213-4.16524S393.002,489.86054,393.002,489.86054s6.24786-4.16524,20.82619-6.24786a40.947,40.947,0,0,1,24.99143,4.16524s-6.24786,24.99143,24.99143,60.39595,68.72642,20.82619,97.88309,12.49571,41.65237-10.41309,62.47856-81.22214c-.86131-8.613,0-22.9088,8.33048-27.074,1.86278-.93139,2.08262-10.4131-4.16524-20.82619C617.92482,433.62983,603.34648,435.71245,588.76815,427.382ZM345.10174,573.1653c-39.56976,24.99142-87.47,12.49571-99.96571,8.33047s-39.56976-35.40452-37.48714-70.809,33.3219-35.40452,33.3219-35.40452,74.97428-18.74357,116.62666-8.33048c28.57353,7.14337,24.99143,35.40452,24.99143,35.40452S384.6715,548.17387,345.10174,573.1653Zm237.41855-29.15667c-16.661,14.57833-72.89166,20.82619-91.63523,14.57833s-35.40452-29.15666-37.48714-64.56118,33.3219-39.56976,33.3219-39.56976c31.23929-14.57834,87.0014-19.594,102.04833-14.57834,18.74357,6.24786,24.99143,20.82619,24.99143,43.735C613.75958,496.1084,599.18125,529.4303,582.52029,544.00863Z"/><path class="cls-11" d="M346.402,810.223c-4.26788.756-9.46315-1.45678-14.23014-2.08128a25.49842,25.49842,0,0,0-23.04155,9.15143l-9.84623,12.03429s-24.99143,6.24786-14.57833,18.74357,33.3219,18.74358,37.48714,18.74358,41.65238,10.41309,49.98285,12.49571,49.98286,6.24786,54.14809,4.16524,60.39595-10.4131,60.39595-10.4131,20.82619-10.41309,22.90881-12.49571,8.33048,0,16.66095-18.74357,14.5783-20.82619,16.66092-33.32191,6.24786-22.9088,4.16524-35.40452,0-16.661,4.16524-24.99142,10.41309-10.4131,14.57833-20.82619,10.41309-18.74357,12.49571-29.15667a74.60528,74.60528,0,0,1,8.33048-22.90881,87.03589,87.03589,0,0,0,8.33047-20.82619c2.08262-8.33047,13.43572-39.05374,6.24786-27.074-6.24786,10.41309,2.08262,2.08262-2.08262,4.16524s-12.49571,24.99142-14.57833,29.15666-16.66095,33.3219-24.99143,43.735-43.735,27.074-43.735,27.074l-41.65238,35.40453s-58.31333,0-72.89167,6.24785c0,0-17.01826,2.43994-22.9088,8.33048C378.42358,781.42719,360.19805,807.77955,346.402,810.223Z"/><path class="cls-23" d="M382.58888,416.96888s-2.08262-27.074-14.57834-27.074c-7.76981,0-43.722-2.41562-69.80491-4.24284a76.65372,76.65372,0,0,0-50.87984,14.796c-21.671,15.99342-51.89705,38.37617-58.42049,43.59489-10.41309,8.33048,62.47857-29.15666,81.22216-31.23928S382.58888,416.96888,382.58888,416.96888Z"/><path class="cls-23" d="M459.64578,429.46459s37.48714-24.99143,64.56118-31.23928,74.97429,10.41309,74.97429,10.41309-20.82619-31.23928-58.31333-35.40452S459.64578,429.46459,459.64578,429.46459Z"/><polygon class="cls-24" points="311.781 302.425 407.581 310.756 492.968 285.764 405.498 300.343 311.781 302.425"/><polygon class="cls-24" points="320.111 346.16 415.911 354.491 501.299 329.499 413.829 344.078 320.111 346.16"/><path class="cls-25" d="M91.02223,458.62125s-22.9088-58.31333-56.23071-37.48714-37.48714,54.1481-33.3219,83.30476,47.90024,97.88309,60.396,108.29619,45.81762,20.82618,45.81762,20.82618,8.33047,0,10.41309-6.24785c1.31718-3.9515-8.33047-39.56976-14.57833-54.14809S91.02223,458.62125,91.02223,458.62125Z"/><path class="cls-26" d="M68.11343,548.17387s27.074,0,31.23928,16.661,0,12.49571,0,12.49571l-8.33048-6.24785Z"/><path class="cls-27" d="M86.857,496.1084s-12.49572,10.41309-10.4131,14.57833,16.661,6.24785,16.661,6.24785Z"/><path class="cls-1" d="M88.20172,452.3734a19.58742,19.58742,0,0,1-15.92306-4.16524c-8.33048-6.24786-22.90881-12.49571-22.90881-12.49571l-16.37007,1.99421-8.62136,19.76251-3.3905,32.39137,3.3905,27.074L35.87467,543.851l9.18508,16.267L59.783,579.41322s10.4131,16.66095,12.49571,22.9088a152.00748,152.00748,0,0,1,3.93112,18.99748s-17.6825-11.5784-25.385-21.53579-26.44631-41.40648-26.44631-41.40648L5.78076,519.90356S-1.14176,495.61717.16394,484.40838s6.704-32.035,6.704-32.035,8.08148-19.67162,21.12652-26.49676,17.88164-12.28789,26.91775-8.51521S79.6534,437.70666,79.6534,437.70666Z"/><path class="cls-28" d="M63.94818,441.9603s-12.49571-20.82619-27.074-8.33047S16.048,481.53006,18.13057,498.191c.91827,7.346,1.83651,15.09689,3.46879,22.5385,2.06979,9.43636,5.28777,18.37548,11.10954,25.36174C43.122,558.587,53.53509,569.00006,53.53509,569.00006S32.7089,544.00863,28.54366,527.34768s-10.41309-37.48714-6.24785-49.98286,4.16523-33.3219,12.49571-35.40452,14.57833-4.16523,14.57833-4.16523Z"/></g></g></g></g></svg>